<?xml version="1.0" encoding="utf-8"?>
<!-- Generator: Adobe Illustrator 16.0.4, SVG Export Plug-In . SVG Version: 6.00 Build 0)  -->
<!DOCTYPE svg PUBLIC "-//W3C//DTD SVG 1.1//EN" "http://www.w3.org/Graphics/SVG/1.1/DTD/svg11.dtd">
<svg version="1.1" id="Layer_1" xmlns="http://www.w3.org/2000/svg" xmlns:xlink="http://www.w3.org/1999/xlink" x="0px" y="0px"
	 width="261px" height="94.314px" viewBox="0 0 261 94.314" enable-background="new 0 0 261 94.314" xml:space="preserve">
<g>
	<path fill="#9BCD65" d="M230.553,41.575c-0.042,0-0.071-0.004-0.074-0.004l0,0l-1.815-0.046c-0.018-0.001-0.03-0.008-0.044-0.019
		l0,0c-0.007-0.013-0.01-0.03-0.01-0.045l0,0l3.164-17.845l-14.794,0.047l-5.691,5.873l-0.04,0.017l-1.786-0.1
		c-0.018,0-0.032-0.008-0.043-0.021l0,0c-0.008-0.014-0.013-0.03-0.008-0.045l0,0l1.883-7.816l0.066-0.387
		c0.003-0.029,0.024-0.047,0.055-0.047l0,0h49.528c0.016,0,0.031,0.006,0.041,0.017l0,0c0.013,0.013,0.017,0.028,0.015,0.044l0,0
		c-0.211,2.083-3.587,2.055-3.587,2.063l0,0l-15.718,0.136l-2.048,3.602l2.663,0.087c0.017,0,0.031,0.006,0.039,0.017l0,0
		c0.012,0.012,0.015,0.027,0.014,0.041l0,0l-0.137,2.062l-0.018,0.037c-0.656,0.632-3.554,0.649-4.25,0.655l0,0
		c-0.051,0-0.089,0-0.115,0l0,0l-6.077,10.711c-0.458,0.86-1,0.966-1.207,0.966l0,0H230.553L230.553,41.575z"/>
	<path fill="#00539F" d="M211.416,20.345c-0.03,0-0.052-0.019-0.055-0.043l0,0l-0.066-0.386l-1.885-7.781
		c-0.005-0.014,0-0.031,0.01-0.044l0,0c0.01-0.015,0.023-0.021,0.04-0.022l0,0l1.787-0.1l0.042,0.016l5.69,5.845l14.795,0.049
		L228.61,0.115c0-0.015,0.003-0.032,0.01-0.044l0,0c0.014-0.013,0.026-0.021,0.044-0.021l0,0l1.805-0.045
		c0.004,0,0.036-0.005,0.085-0.005l0,0c0.206-0.002,0.75,0.099,1.21,0.96l0,0l6.076,10.665c0.025,0,0.063-0.001,0.111-0.001l0,0
		c0.694,0.006,3.602,0.022,4.258,0.656l0,0l0.018,0.034l0.137,2.052c0,0.015-0.004,0.027-0.014,0.041l0,0
		c-0.014,0.013-0.025,0.019-0.041,0.019l0,0l-2.661,0.088l2.052,3.585l15.713,0.135c0.001,0.005,3.375-0.022,3.588,2.053l0,0
		c0.002,0.015-0.002,0.03-0.015,0.043l0,0c-0.01,0.011-0.025,0.016-0.041,0.016l0,0H211.416L211.416,20.345z"/>
	<path fill="#00539F" d="M136.598,81.707l-3.909-10.716h-16.395l-3.847,10.716h-7.754l16.266-42.053h7.629l16.141,42.053H136.598z
		 M124.553,47.912l-5.927,16.646h11.792L124.553,47.912z"/>
	<path fill="#00539F" d="M162.955,82.214c-10.154,0-16.901-2.521-16.901-12.233h7.44c0,4.226,2.02,5.55,9.585,5.55
		c8.134,0,9.456-2.019,9.456-6.62c0-4.101-1.573-4.667-4.728-4.919c-9.269-0.692-21.754,1.892-21.754-11.98
		c0-9.771,5.675-12.8,16.772-12.8c10.15,0,16.709,2.587,16.709,12.234h-7.312c0-4.983-3.153-5.548-9.523-5.548
		c-8.382,0-9.206,1.577-9.206,5.991c0,3.907,1.766,4.413,4.729,4.666c9.271,0.756,21.817-1.957,21.754,12.042
		C179.916,78.053,174.368,82.214,162.955,82.214z"/>
	<path fill="#00539F" d="M210.621,51.444c0-4.226-1.764-5.485-9.018-5.485c-8.448,0-9.771,2.71-9.771,14.754
		c0,12.042,1.259,14.689,9.708,14.689c7.253,0,9.017-1.196,9.017-5.422h7.315c0,9.523-6.18,12.233-15.764,12.233
		c-17.591,0-17.718-9.521-17.718-21.565c0-12.043,0.188-21.438,17.78-21.438c9.586,0,15.766,2.712,15.766,12.234H210.621z"/>
	<g>
		<g>
			<path fill="#00539F" d="M175.97,20.239c-29.257,0.562-64.676,5.398-98.037,14.199C29.746,47.165,0.022,64.376,0,77.652
				c0,0.421,0.03,0.833,0.09,1.247c1.565,9.818,22.122,12.587,47.086,13.572h0.011c0.03,0,0.052-0.021,0.054-0.049
				c0.002-0.031-0.017-0.058-0.044-0.061c-8.432-1.317-15.309-3.312-20.11-6.005c-4.96-2.788-7.294-6.081-7.296-9.692
				C19.77,63.727,49.839,46.472,98.346,33.681c26.001-6.855,53.166-11.354,77.632-13.332c0.027-0.001,0.049-0.028,0.049-0.059
				C176.023,20.261,176,20.238,175.97,20.239z"/>
		</g>
	</g>
	<path fill="#00539F" d="M109.549,92.488l-0.59-1.622h-2.485l-0.583,1.622h-1.174l2.464-6.374h1.156l2.446,6.374H109.549z
		 M107.726,87.367l-0.897,2.522h1.786L107.726,87.367z"/>
	<path fill="#00539F" d="M111.539,87.225c-0.38,0-0.593-0.22-0.593-0.593c0-0.384,0.221-0.582,0.593-0.582
		c0.373,0,0.594,0.198,0.594,0.582C112.133,87.005,111.922,87.225,111.539,87.225z M111.004,92.488v-4.661h1.08v4.661H111.004z"/>
	<path fill="#00539F" d="M115.512,89.221c0-0.43-0.208-0.525-0.657-0.525s-0.726,0.239-0.841,0.554
		c-0.124,0.335-0.105,0.852-0.105,1.213v2.026h-1.079v-4.661h0.936v0.42c0.308-0.326,0.737-0.497,1.28-0.497
		c1.004,0,1.512,0.449,1.512,1.471H115.512z"/>
	<path fill="#00539F" d="M116.814,92.488v-6.66h1.079v6.66H116.814z"/>
	<path fill="#00539F" d="M119.164,87.225c-0.382,0-0.592-0.22-0.592-0.593c0-0.384,0.22-0.582,0.592-0.582
		c0.373,0,0.592,0.198,0.592,0.582C119.756,87.005,119.548,87.225,119.164,87.225z M118.631,92.488v-4.661h1.079v4.661H118.631z"/>
	<path fill="#00539F" d="M123.463,92.488v-2.455c0-0.899,0.088-1.328-0.848-1.328c-1.166,0-1.082,0.803-1.082,1.613v2.17h-1.08
		v-4.661h0.938v0.372c0.267-0.239,0.686-0.449,1.346-0.449c1.882,0,1.806,1.185,1.806,2.197v2.541H123.463z"/>
	<path fill="#00539F" d="M126.169,90.567c0,0.796,0.201,1.107,1.128,1.107c0.391,0,0.985-0.056,0.993-0.582h1.013
		c0,1.25-1.165,1.473-2.045,1.473c-1.872,0-2.17-0.995-2.17-2.351c0-1.395,0.27-2.465,2.143-2.465c2.031,0,2.128,1.194,2.128,2.817
		H126.169z M127.23,88.639c-0.947,0-1.043,0.429-1.043,1.051h2.103C128.291,89.021,128.231,88.639,127.23,88.639z"/>
	<path fill="#00539F" d="M134.158,92.565c-1.537,0-2.562-0.383-2.562-1.854h1.128c0,0.64,0.307,0.839,1.451,0.839
		c1.233,0,1.436-0.305,1.436-1.002c0-0.621-0.24-0.707-0.717-0.747c-1.404-0.104-3.298,0.288-3.298-1.813
		c0-1.479,0.859-1.938,2.543-1.938c1.537,0,2.531,0.392,2.531,1.853h-1.108c0-0.754-0.478-0.841-1.442-0.841
		c-1.273,0-1.396,0.239-1.396,0.905c0,0.594,0.268,0.672,0.717,0.711c1.405,0.113,3.307-0.298,3.295,1.822
		C136.726,91.936,135.887,92.565,134.158,92.565z"/>
	<path fill="#00539F" d="M138.362,90.567c0,0.796,0.2,1.107,1.129,1.107c0.392,0,0.982-0.056,0.992-0.582h1.015
		c0,1.25-1.168,1.473-2.045,1.473c-1.874,0-2.168-0.995-2.168-2.351c0-1.395,0.266-2.465,2.138-2.465
		c2.036,0,2.133,1.194,2.133,2.817H138.362z M139.422,88.639c-0.945,0-1.04,0.429-1.04,1.051h2.101
		C140.483,89.021,140.425,88.639,139.422,88.639z"/>
	<path fill="#00539F" d="M144.849,89.221c0-0.43-0.207-0.525-0.656-0.525c-0.452,0-0.728,0.239-0.84,0.554
		c-0.126,0.335-0.105,0.852-0.105,1.213v2.026h-1.08v-4.661h0.934v0.42c0.308-0.326,0.737-0.497,1.28-0.497
		c1.005,0,1.511,0.449,1.511,1.471H144.849z"/>
	<path fill="#00539F" d="M148.598,92.488h-1.081l-1.835-4.661h1.155l1.234,3.419l1.23-3.419h1.12L148.598,92.488z"/>
	<path fill="#00539F" d="M151.233,87.225c-0.381,0-0.591-0.22-0.591-0.593c0-0.384,0.22-0.582,0.591-0.582
		c0.375,0,0.596,0.198,0.596,0.582C151.829,87.005,151.62,87.225,151.233,87.225z M150.699,92.488v-4.661h1.081v4.661H150.699z"/>
	<path fill="#00539F" d="M154.531,92.565c-1.939,0-2.141-1.108-2.141-2.428c0-1.317,0.201-2.388,2.141-2.388
		c0.86,0,1.986,0.21,1.986,1.471h-1.021c-0.01-0.516-0.555-0.516-0.937-0.516c-0.974,0-1.089,0.381-1.089,1.452
		c0,1.07,0.115,1.451,1.089,1.451c0.382,0,0.927,0,0.937-0.516h1.021C156.517,92.354,155.391,92.565,154.531,92.565z"/>
	<path fill="#00539F" d="M157.943,90.567c0,0.796,0.201,1.107,1.127,1.107c0.393,0,0.983-0.056,0.993-0.582h1.015
		c0,1.25-1.166,1.473-2.045,1.473c-1.871,0-2.17-0.995-2.17-2.351c0-1.395,0.268-2.465,2.14-2.465c2.034,0,2.132,1.194,2.132,2.817
		H157.943z M159.002,88.639c-0.945,0-1.039,0.429-1.039,1.051h2.1C160.063,89.021,160.007,88.639,159.002,88.639z"/>
	<path fill="#00539F" d="M164.7,89.221c0-0.448-0.232-0.582-0.861-0.603c-0.928-0.029-1.079,0.192-1.089,0.496
		c-0.019,0.528,0.287,0.528,0.756,0.555c1.067,0.068,2.187-0.018,2.157,1.471c-0.021,1.147-0.906,1.443-2.157,1.426
		c-1.177-0.02-1.941-0.326-1.941-1.473h0.994c0,0.402,0.173,0.594,0.936,0.611c0.927,0.031,1.089-0.182,1.1-0.515
		c0.019-0.556-0.306-0.565-0.841-0.595c-1.041-0.056-2.109-0.019-2.08-1.45c0.017-1.156,0.915-1.414,2.157-1.395
		c1.156,0.019,1.862,0.361,1.862,1.471H164.7z"/>
	<path fill="#00539F" d="M171.933,87.902c0-0.64-0.27-0.831-1.368-0.831c-1.279,0-1.48,0.41-1.48,2.235
		c0,1.823,0.192,2.226,1.47,2.226c1.1,0,1.367-0.181,1.367-0.82h1.111c0,1.441-0.938,1.854-2.391,1.854
		c-2.666,0-2.684-1.443-2.684-3.268s0.026-3.248,2.693-3.248c1.453,0,2.388,0.409,2.388,1.853H171.933z"/>
	<path fill="#00539F" d="M177.504,92.038c-0.403,0.393-0.975,0.527-1.72,0.527c-0.755,0-1.321-0.135-1.721-0.527
		c-0.411-0.393-0.498-0.993-0.498-1.881c0-0.89,0.087-1.49,0.498-1.884c0.399-0.392,0.966-0.523,1.721-0.523
		c0.745,0,1.316,0.132,1.72,0.523c0.409,0.394,0.498,0.994,0.498,1.884C178.002,91.045,177.914,91.646,177.504,92.038z
		 M175.785,88.705c-1.044,0-1.138,0.401-1.138,1.452c0,1.052,0.094,1.451,1.138,1.451c1.041,0,1.135-0.399,1.135-1.451
		C176.919,89.106,176.826,88.705,175.785,88.705z"/>
	<path fill="#00539F" d="M184.069,92.488v-2.81c0-0.582,0.038-0.974-0.716-0.974c-1.043,0-0.938,0.946-0.938,1.634v2.149h-1.07
		v-2.81c0-0.582,0.027-0.974-0.727-0.974c-1.041,0-0.927,0.964-0.927,1.651v2.132h-1.078v-4.661h0.935v0.411
		c0.278-0.278,0.688-0.488,1.272-0.488c0.513,0,0.945,0.171,1.224,0.488c0.353-0.327,0.741-0.488,1.404-0.488
		c0.717,0,1.316,0.249,1.565,0.811c0.161,0.362,0.132,0.756,0.132,1.138v2.79H184.069z"/>
	<path fill="#00539F" d="M188.132,92.565c-0.507,0-0.91-0.077-1.225-0.412v2.161h-1.081v-6.487h0.975v0.372
		c0.392-0.345,0.956-0.459,1.451-0.449c1.665,0.019,1.886,0.936,1.886,2.417C190.138,91.294,189.936,92.565,188.132,92.565z
		 M188.083,88.705c-0.927,0-1.185,0.295-1.185,1.462c0,1.165,0.258,1.441,1.185,1.441c0.804,0,0.975-0.353,0.975-1.441
		C189.057,89.077,188.886,88.705,188.083,88.705z"/>
	<path fill="#00539F" d="M194.552,92.038c-0.405,0.393-0.975,0.527-1.72,0.527c-0.758,0-1.318-0.135-1.722-0.527
		c-0.409-0.393-0.494-0.993-0.494-1.881c0-0.89,0.085-1.49,0.494-1.884c0.403-0.392,0.964-0.523,1.722-0.523
		c0.745,0,1.314,0.132,1.72,0.523c0.409,0.394,0.495,0.994,0.495,1.884C195.047,91.045,194.961,91.646,194.552,92.038z
		 M192.833,88.705c-1.043,0-1.139,0.401-1.139,1.452c0,1.052,0.096,1.451,1.139,1.451c1.04,0,1.138-0.399,1.138-1.451
		C193.97,89.106,193.873,88.705,192.833,88.705z"/>
	<path fill="#00539F" d="M198.67,92.488v-2.455c0-0.899,0.086-1.328-0.85-1.328c-1.166,0-1.082,0.803-1.082,1.613v2.17h-1.077
		v-4.661h0.934v0.372c0.269-0.239,0.688-0.449,1.35-0.449c1.881,0,1.804,1.185,1.804,2.197v2.541H198.67z"/>
	<path fill="#00539F" d="M201.375,90.567c0,0.796,0.201,1.107,1.128,1.107c0.389,0,0.983-0.056,0.992-0.582h1.016
		c0,1.25-1.169,1.473-2.049,1.473c-1.871,0-2.167-0.995-2.167-2.351c0-1.395,0.267-2.465,2.141-2.465c2.034,0,2.13,1.194,2.13,2.817
		H201.375z M202.436,88.639c-0.946,0-1.041,0.429-1.041,1.051h2.101C203.496,89.021,203.439,88.639,202.436,88.639z"/>
	<path fill="#00539F" d="M208.189,92.488v-2.455c0-0.899,0.085-1.328-0.851-1.328c-1.168,0-1.079,0.803-1.079,1.613v2.17h-1.081
		v-4.661h0.937v0.372c0.268-0.239,0.688-0.449,1.347-0.449c1.882,0,1.806,1.185,1.806,2.197v2.541H208.189z"/>
	<path fill="#00539F" d="M211.963,92.565c-1.08,0-1.7-0.471-1.7-1.511v-2.333h-0.747v-0.895h0.747v-1.713h1.078v1.713h1.901v0.895
		h-1.901v2.333c0,0.429,0.154,0.632,0.68,0.632c0.467,0,0.688-0.191,0.688-0.594h0.991C213.7,92.211,212.889,92.565,211.963,92.565z
		"/>
	<path fill="#00539F" d="M216.98,89.221c0-0.448-0.229-0.582-0.86-0.603c-0.925-0.029-1.079,0.192-1.09,0.496
		c-0.019,0.528,0.287,0.528,0.754,0.555c1.072,0.068,2.189-0.018,2.161,1.471c-0.02,1.147-0.908,1.443-2.161,1.426
		c-1.173-0.02-1.938-0.326-1.938-1.473h0.992c0,0.402,0.173,0.594,0.938,0.611c0.926,0.031,1.09-0.182,1.099-0.515
		c0.019-0.556-0.305-0.565-0.841-0.595c-1.043-0.056-2.113-0.019-2.085-1.45c0.022-1.156,0.918-1.414,2.161-1.395
		c1.155,0.019,1.862,0.361,1.862,1.471H216.98z"/>
	<path fill="#9BCD65" d="M89.922,92.52c-3.533,0-8.128-0.018-11.198-0.018l0,0c-21.093,0-37.77-2.417-46.644-7.418l0,0
		c-4.616-2.606-6.63-5.548-6.63-8.714l0,0c-0.003-0.037-0.003-0.07-0.003-0.102l0,0c0.008-5.877,7.407-13.36,21.022-20.771l0,0
		c13.662-7.478,33.456-14.992,57.856-21.426l0,0c23.958-6.322,48.848-10.682,71.632-12.931l0,0c0.004,0,0.004,0,0.007,0l0,0l0,0
		h0.002l0,0c0.03-0.004,0.057,0.018,0.062,0.046l0,0c0.004,0.029-0.017,0.058-0.049,0.062l0,0
		c-16.995,2.502-34.652,6.051-51.878,10.599l0,0c-24.625,6.498-44.661,14.044-58.579,21.57l0,0
		C51.63,60.973,43.714,68.377,43.632,75.211l0,0l0,0c0.002,3.604,2.211,6.785,6.929,9.356l0,0
		c9.366,4.636,22.064,7.358,39.364,7.843l0,0c0.031,0,0.055,0.026,0.055,0.054l0,0c0,0.031-0.024,0.056-0.055,0.056l0,0H89.922
		L89.922,92.52z"/>
</g>
</svg>
